<svg enable-background="new 0 0 818 192" viewBox="0 0 818 192" xmlns="http://www.w3.org/2000/svg"><g fill="#373683"><path d="m185.63 157.83 2.88 2.88c-19.36 19.88-44.21 28.51-68.53 28.51-51.79 0-93.12-41.85-93.12-93.65s41.32-93.65 93.11-93.65c31.13 0 51.01 9.94 69.06 27.21l-6.54 6.28c-15.69-18.05-34-29.82-62.52-29.82-51.79 0-79.52 42.64-79.52 89.98 0 47.35 27.73 89.98 79.52 89.98 24.33 0 46.83-9.15 65.66-27.72zm-48.65-47.09v37.15h-12.56v-104.64h12.56v63.83h83.18v-103.06h12.56v171.86c0 4.19.26 6.54 2.62 11.25h-15.17v-76.38h-83.19z"/><path d="m328.46 183.2c-3.66 2.88-7.06 3.92-11.51 3.92h-52.84v-171.86c0-4.18-.26-6.54-2.62-11.25h60.69v3.66h-45.52v76.64h45.52v3.66h-45.52v95.48h39.24c3.92 0 7.32-1.05 10.46-3.14z"/><path d="m494.56 35.41c-15.7-18.05-34.01-29.82-62.52-29.82-51.79 0-79.52 42.64-79.52 89.98 0 47.35 27.73 89.98 79.52 89.98 24.33 0 46.82-9.16 65.66-27.73l2.88 2.88c-19.36 19.88-44.21 28.51-68.53 28.51-51.79 0-93.12-41.85-93.12-93.65s41.33-93.65 93.12-93.65c31.13 0 51.01 9.94 69.06 27.21z"/><path d="m592.13 175.87c2.09 3.92 3.92 6.54 7.59 11.25h-17.53c-.26-4.71-1.57-7.06-3.66-11.25l-38.71-76.91-5.23 8.89v79.26h-12.55v-171.85c0-4.18-.26-6.54-2.62-11.25h15.17v96.26l56.24-96.26h4.45l-48.13 82.4z"/><path d="m619.87 97.4v-3.66h30.68v3.66z"/><path d="m688.64 175.87c0 4.19.26 6.54 2.62 11.25h-17.79c2.35-4.71 2.62-7.06 2.62-11.25v-160.61c0-4.18-.26-6.54-2.62-11.25h17.79c-2.35 4.71-2.62 7.06-2.62 11.25z"/><path d="m787 182.41c.26.52.78.52.78 0v-178.39h3.66v176.57c0 4.97-3.4 7.59-8.63 7.59-4.97 0-7.85-2.62-9.42-7.85l-49.17-171.34c0-.52-.52-.52-.52 0v178.14h-3.66v-171.87c0-4.18-.26-6.54-2.62-11.25h11.51c4.45 0 7.85 3.66 9.16 8.11z"/></g></svg>